<?xml version="1.0" encoding="utf-8"?>
<!-- Generator: Adobe Illustrator 25.2.1, SVG Export Plug-In . SVG Version: 6.00 Build 0)  -->
<svg version="1.1" id="Layer_1" xmlns="http://www.w3.org/2000/svg" xmlns:xlink="http://www.w3.org/1999/xlink" x="0px" y="0px"
	 viewBox="0 0 150 150" style="enable-background:new 0 0 150 150;" xml:space="preserve">
<style type="text/css">
	.st0{fill:#E0E0E0;}
	.st1{fill:#C9C8C7;}
	.st2{fill:#F4F4F4;}
	.st3{fill:#F4C734;}
</style>
<g id="colour">
	<path class="st0" d="M38.7,25.4L38.7,25.4L38.7,25.4L38.7,25.4z"/>
	<path class="st1" d="M94.5,29.8c2.4,4.5,4.3,12.8,0,17.1h6.4C105.2,42.6,103.3,30,94.5,29.8z"/>
	<path class="st2" d="M39.1,36.4c-0.6-4.9,3-5.6,8-5c1.1,0.2,2.1-0.5,2.4-1.5c0.9-3.8,4.4-7.3,10.4-5.3c1.1,0.3,2.2-0.2,2.6-1.2
		c2.2-4.4,11.3-5.4,16.8-2.3c-0.2-10.6-21.4-10.5-21.4-2c-8.6-4.3-12.8,1.7-12.8,6.4c-6.4-2.1-12.8,2.1-10.7,8.6
		c-6.4,2.1-8.6,8.6-2.1,12.8l0.3,0.2c0.2-1.8,13.4,4,4.5-6C34.8,38.6,39.2,37.3,39.1,36.4z"/>
	<path class="st2" d="M79.5,21.2c0,0-0.1-0.1-0.1-0.1c0,0,0,0.1,0,0.1C79.4,21.2,79.4,21.2,79.5,21.2z"/>
	<path class="st3" d="M89.7,137H44.1c-6.1,0.2-11.2-4.6-11.4-10.7V47.1h68.5v79.2C100.9,132.4,95.8,137.2,89.7,137z"/>
	<path class="st1" d="M49.8,40.7c-1.2,0-2.1-1-2.1-2.1c0,0,0,0,0,0c0-4.7,4.8-8.6,10.7-8.6c1.2,0,2.1,1,2.1,2.1c0,1.2-1,2.1-2.1,2.1
		c-3.5,0-6.4,2-6.4,4.3C51.9,39.7,51,40.7,49.8,40.7C49.8,40.7,49.8,40.7,49.8,40.7z"/>
	<path class="st1" d="M84,40.7c-1.2,0-2.1-1-2.1-2.1c0,0,0,0,0,0c0-1.2-1-2.1-2.1-2.1c-1.2,0-2.1-1-2.1-2.1c0-1.2,1-2.1,2.1-2.1
		c3.5,0,6.4,2.9,6.4,6.4C86.2,39.7,85.2,40.7,84,40.7C84,40.7,84,40.7,84,40.7z"/>
	<path class="st1" d="M71.2,27.9c-1,0-1.9-0.7-2.1-1.7c-0.7-0.3-1.4-0.5-2.2-0.5c-1.2,0-2.1-1-2.1-2.1c0-1.2,1-2.1,2.1-2.1
		c3.7,0,6.4,1.8,6.4,4.3C73.3,26.9,72.4,27.9,71.2,27.9C71.2,27.9,71.2,27.9,71.2,27.9z"/>
</g>
<path d="M115.6,68.5h-12.3V47.9c2.8-3.9,3.4-9,1.7-13.5c-1.4-3.5-4.6-6-8.4-6.3c-1-3.3-3.2-6.2-6.1-8.1c-2.7-1.7-6-2.2-9-1.4
	c-0.8-2.2-2.3-4-4.2-5.2c-2.7-1.6-5.9-2.4-9-2.4c-5.5,0-9.7,2.1-11.3,5.4c-2.9-1.2-6.2-0.9-8.9,0.7c-2.2,1.4-3.7,3.6-4.3,6.1
	c-3.3-0.5-6.6,0.5-9,2.8c-1.9,1.8-2.7,4.5-2.4,7.1c-2.9,1.3-5,3.9-5.6,7.1c-0.3,3.2,1.2,6.3,3.8,8.1v78.1c0.2,7.3,6.3,13,13.5,12.8
	h45.6c7.3,0.2,13.3-5.6,13.5-12.8h12.3c3.7,0.1,6.8-2.7,7-6.4V74.9C122.4,71.2,119.3,68.4,115.6,68.5z M99,60H34.8V49.3H99V60z
	 M103.3,81.4h5.9c0.3,0,0.5,0.1,0.5,0l0,31.9c-0.2,0.1-0.4,0.2-0.6,0.2h-5.9V81.4z M35.5,36.3c1.1-0.4,1.7-1.6,1.4-2.7c0,0,0,0,0,0
	c-0.7-1.6-0.3-3.4,0.9-4.7c2-1.7,4.7-2.1,7.1-1.2c1.1,0.4,2.3-0.2,2.7-1.3c0.1-0.2,0.1-0.4,0.1-0.7c0-2,1-3.9,2.6-5
	c2.3-1.1,5-0.9,7.1,0.5c1.1,0.5,2.3,0.1,2.9-1c0.1-0.3,0.2-0.6,0.2-1c0-2.6,3.9-4,7.7-4c2.4-0.1,4.7,0.5,6.8,1.7
	c1.6,0.9,2.7,2.6,2.7,4.5c0,1.2,1,2.1,2.1,2.1c0.3,0,0.7-0.1,1-0.2c2.3-1.3,5.2-1.3,7.5,0.2c2.3,1.4,3.9,3.8,4.4,6.5
	c0,1.2,1,2.1,2.1,2.1c0,0,0,0,0,0c2.7-0.3,5.3,1.3,6.3,3.8c1.1,3,0.8,6.3-0.9,9H33.4c-1.5-0.9-2.5-2.5-2.4-4.3
	C31.5,38.5,33.3,36.8,35.5,36.3z M89.7,134.8H44.1c-4.9,0.2-9.1-3.6-9.3-8.6v-62H99v62C98.8,131.2,94.6,135,89.7,134.8z
	 M118.2,119.9c-0.2,1.3-1.4,2.3-2.7,2.1h-12.3v-4.3h5.9c2.5,0.1,4.7-1.8,4.8-4.3V81.4c-0.2-2.5-2.3-4.4-4.8-4.3h-5.9v-4.3h12.3
	c1.3-0.1,2.5,0.8,2.7,2.1V119.9z"/>
<path d="M49.8,40.7c1.2,0,2.1-1,2.1-2.1c0,0,0,0,0,0c0-2.3,2.9-4.3,6.4-4.3c1.2,0,2.1-1,2.1-2.1c0-1.2-1-2.1-2.1-2.1
	c-5.9,0-10.7,3.8-10.7,8.6C47.6,39.7,48.6,40.7,49.8,40.7C49.8,40.7,49.8,40.7,49.8,40.7z"/>
<path d="M79.7,36.4c1.2,0,2.1,1,2.1,2.1c0,1.2,1,2.1,2.1,2.1c1.2,0,2.1-1,2.1-2.1c0-3.5-2.9-6.4-6.4-6.4c-1.2,0-2.1,1-2.1,2.1
	C77.6,35.5,78.6,36.4,79.7,36.4z"/>
<path d="M66.9,25.7c0.8,0,1.5,0.1,2.2,0.5c0.3,1.2,1.4,1.9,2.6,1.6c1-0.2,1.7-1.1,1.7-2.1c0-2.5-2.7-4.3-6.4-4.3
	c-1.2,0-2.1,1-2.1,2.1S65.7,25.7,66.9,25.7z"/>
<path d="M50.9,122c0,1.2-1,2.1-2.1,2.1s-2.1-1-2.1-2.1V77.1c0-1.2,1-2.1,2.1-2.1s2.1,1,2.1,2.1V122z"/>
<path d="M69,122c0,1.2-1,2.1-2.1,2.1c-1.2,0-2.1-1-2.1-2.1V77.1c0-1.2,1-2.1,2.1-2.1c1.2,0,2.1,1,2.1,2.1V122z"/>
<path d="M87.2,122c0,1.2-1,2.1-2.1,2.1c-1.2,0-2.1-1-2.1-2.1V77.1c0-1.2,1-2.1,2.1-2.1c1.2,0,2.1,1,2.1,2.1V122z"/>
</svg>
