<?xml version="1.0" encoding="utf-8"?>
<!-- Generator: Adobe Illustrator 25.2.1, SVG Export Plug-In . SVG Version: 6.00 Build 0)  -->
<svg version="1.1" id="Layer_1" xmlns="http://www.w3.org/2000/svg" xmlns:xlink="http://www.w3.org/1999/xlink" x="0px" y="0px"
	 viewBox="0 0 150 150" style="enable-background:new 0 0 150 150;" xml:space="preserve">
<style type="text/css">
	.st0{fill:#F4C734;}
</style>
<path d="M34.6,47.9h74.8c1.1,0,2-0.9,2-2v-27c0-1.1-0.9-2-2-2H34.6c-1.1,0-2,0.9-2,2v27C32.6,47,33.5,47.9,34.6,47.9z"/>
<rect x="36.6" y="20.9" class="st0" width="70.8" height="23"/>
<path d="M52.7,29.3c0-3.1-2.5-5.7-5.7-5.7h-4.2c-0.8,0-1.5,0.7-1.5,1.5v14.6c0,0.8,0.7,1.5,1.5,1.5s1.5-0.7,1.5-1.5V35l5.8,5.8
	c0.3,0.3,0.7,0.4,1.1,0.4s0.8-0.1,1.1-0.4c0.6-0.6,0.6-1.5,0-2.1l-3.8-3.8C50.9,34.2,52.7,31.9,52.7,29.3z M47.1,32H45
	c-0.2,0-0.4,0-0.6,0.1v-5.4h2.7c1.5,0,2.7,1.2,2.7,2.7S48.6,32,47.1,32z"/>
<path d="M67.9,26.6c0.8,0,1.5-0.7,1.5-1.5s-0.7-1.5-1.5-1.5h-8.3c-0.8,0-1.5,0.7-1.5,1.5v14.6c0,0.8,0.7,1.5,1.5,1.5h8.3
	c0.8,0,1.5-0.7,1.5-1.5s-0.7-1.5-1.5-1.5h-6.8v-5.3h6.8c0.8,0,1.5-0.7,1.5-1.5s-0.7-1.5-1.5-1.5h-6.8v-3.2H67.9z"/>
<path d="M84.5,23.6c-0.8,0-1.5,0.7-1.5,1.5V34l-5.5-9.6c-0.3-0.6-1-0.9-1.7-0.7c-0.7,0.2-1.1,0.8-1.1,1.4v14.6
	c0,0.8,0.7,1.5,1.5,1.5c0.8,0,1.5-0.7,1.5-1.5v-8.9l5.5,9.6c0.3,0.5,0.8,0.8,1.3,0.8c0.1,0,0.3,0,0.4-0.1c0.7-0.2,1.1-0.8,1.1-1.4
	V25.1C86,24.3,85.3,23.6,84.5,23.6z"/>
<path d="M101.1,23.6h-8.3c-0.8,0-1.5,0.7-1.5,1.5s0.7,1.5,1.5,1.5h2.7v13.1c0,0.8,0.7,1.5,1.5,1.5s1.5-0.7,1.5-1.5V26.6h2.7
	c0.8,0,1.5-0.7,1.5-1.5S102,23.6,101.1,23.6z"/>
<path d="M122.6,79.2c0-3.8-3.1-6.9-6.9-6.9h-5.6V60.5c0-3.8-3.1-6.9-6.9-6.9H40.9c-3.8,0-6.9,3.1-6.9,6.9v11.8h-5.6
	c-3.8,0-6.9,3.1-6.9,6.9c0,3.8,3.1,6.9,6.9,6.9h5.2L29.9,97c-0.1,0.3-0.1,0.6-0.1,0.9v2.1v6.2v5.6h-1.4c-1.5,0-2.8,1.2-2.8,2.8v8.3
	c0,1.5,1.2,2.8,2.8,2.8h1.4v4.5c0,4.4,3.6,7.9,7.9,7.9s7.9-3.6,7.9-7.9v-4.5h52.7v4.5c0,4.4,3.6,7.9,7.9,7.9s7.9-3.6,7.9-7.9v-4.5
	h1.4c1.5,0,2.8-1.2,2.8-2.8v-8.3c0-1.5-1.2-2.8-2.8-2.8h-1.4v-5.6V100v-2.1c0-0.3,0-0.6-0.1-0.9l-3.6-10.9h5.2
	C119.5,86.1,122.6,83,122.6,79.2z M115.7,77.8c0.8,0,1.4,0.6,1.4,1.4s-0.6,1.4-1.4,1.4h-5.6v-2.8H115.7z M39.4,60.5
	c0-0.8,0.6-1.4,1.4-1.4h62.4c0.8,0,1.4,0.6,1.4,1.4V75v7.6H39.4V75V60.5z M27,79.2c0-0.8,0.6-1.4,1.4-1.4h5.6v2.8h-5.6
	C27.6,80.6,27,80,27,79.2z M112.9,117.3v2.8h-1.4h-10.4H42.9H32.5h-1.4v-2.8h1.4h79H112.9z M40.2,130.1c0,1.3-1.1,2.4-2.4,2.4
	s-2.4-1.1-2.4-2.4v-4.5h4.9V130.1z M108.8,130.1c0,1.3-1.1,2.4-2.4,2.4s-2.4-1.1-2.4-2.4v-4.5h4.9V130.1z M35.3,111.8V109h2.4
	c3.2,0,5.9-2.6,5.9-5.9c0-3.2-2.6-5.9-5.9-5.9h-2.1l3-9.1h66.7l3,9.1h-2.1c-3.2,0-5.9,2.6-5.9,5.9c0,3.2,2.6,5.9,5.9,5.9h2.4v2.8
	H35.3z"/>
<path d="M82.4,97.2H61.6c-1.5,0-2.8,1.2-2.8,2.8v6.2c0,1.5,1.2,2.8,2.8,2.8h20.8c1.5,0,2.8-1.2,2.8-2.8V100
	C85.2,98.5,83.9,97.2,82.4,97.2z M79.7,104.5H64.4v-2.6h15.3V104.5z"/>
<path d="M67.9,65.3h8.3c1.5,0,2.8-1.2,2.8-2.8s-1.2-2.8-2.8-2.8h-8.3c-1.5,0-2.8,1.2-2.8,2.8S66.4,65.3,67.9,65.3z"/>
<g id="_x31_._luggage_2_">
</g>
<path class="st0" d="M108.8,103.9h-5.3c-0.4,0-0.8-0.4-0.8-0.8c0-0.4,0.4-0.8,0.8-0.8h5.3V103.9z"/>
<path class="st0" d="M40.4,102.3c0.4,0,0.8,0.4,0.8,0.8c0,0.4-0.4,0.8-0.8,0.8h-5.2v-1.6H40.4z"/>
</svg>
