<?xml version="1.0" encoding="utf-8"?>
<!-- Generator: Adobe Illustrator 25.2.1, SVG Export Plug-In . SVG Version: 6.00 Build 0)  -->
<svg version="1.1" id="Layer_1" xmlns="http://www.w3.org/2000/svg" xmlns:xlink="http://www.w3.org/1999/xlink" x="0px" y="0px"
	 viewBox="0 0 150 150" style="enable-background:new 0 0 150 150;" xml:space="preserve">
<style type="text/css">
	.st0{fill:#F4C734;}
</style>
<g>
	<g>
		<g>
			<path d="M83.8,121H68.4c-20.8,0-37.2-15.3-37.2-35V44.3h87.6v8.8h2.2c13.6,0,21.9,8.3,21.9,21.9c0,12.5-9.4,21.9-21.9,21.9h-4.8
				C111.8,111.6,99.3,121,83.8,121z M35.6,48.7V86c0,17.3,14.5,30.7,32.9,30.7h15.3c14.2,0,25.2-8.5,28.5-22.3l0.4-1.8h8.3
				c10.1,0,17.5-7.4,17.5-17.5c0-11.2-6.4-17.5-17.5-17.5h-6.6v-8.8H35.6z M121,88.1h-6.6V61.9h6.6c7.7,0,13.1,5.5,13.1,13.1
				S128.7,88.1,121,88.1z M118.8,83.8h2.2c5.3,0,8.8-3.5,8.8-8.8s-3.5-8.8-8.8-8.8h-2.2V83.8z"/>
		</g>
		<g>
			<path d="M81.6,110H68.4c-17.3,0-26.3-14.2-26.3-28.5v-11h65.7v13.1C107.9,94.7,99.8,110,81.6,110z"/>
		</g>
		<g>
			<path d="M132,129.8H18c-5.5,0-11-5.5-11-11v-2.2h135.8v2.2C142.9,124.5,137.7,129.8,132,129.8z M11.9,121
				c1.1,2.4,3.7,4.4,6.1,4.4H132c2.4,0,5-2,6.1-4.4H11.9z"/>
		</g>
	</g>
	<g>
		<rect x="42.1" y="61.9" width="4.4" height="4.4"/>
	</g>
	<g>
		<rect x="42.1" y="53.1" width="4.4" height="4.4"/>
	</g>
	<g>
		<path d="M96.9,40c-4.8,0-8.8-3.9-8.8-8.8c0-2.4-2-4.4-4.4-4.4c-2.4,0-4.4,2-4.4,4.4H75c0-4.8,3.9-8.8,8.8-8.8s8.8,3.9,8.8,8.8
			c0,2.4,2,4.4,4.4,4.4c2.4,0,4.4-2,4.4-4.4h4.4C105.7,36,101.7,40,96.9,40z"/>
	</g>
	<g>
		<path d="M123.2,42.1c-6.1,0-11-4.8-11-11c0-3.7-2.8-6.6-6.6-6.6c-3.7,0-6.6,2.8-6.6,6.6h-4.4c0-6.1,4.8-11,11-11s11,4.8,11,11
			c0,3.7,2.8,6.6,6.6,6.6c3.7,0,6.6-2.8,6.6-6.6h4.4C134.1,37.3,129.3,42.1,123.2,42.1z"/>
	</g>
</g>
<path class="st0" d="M46.5,75v6.6c0,11.6,6.8,24.1,21.9,24.1h13.1c16.6,0,21.9-14.7,21.9-21.9V75H46.5z"/>
</svg>
