<?xml version="1.0" encoding="utf-8"?>
<!-- Generator: Adobe Illustrator 25.2.1, SVG Export Plug-In . SVG Version: 6.00 Build 0)  -->
<svg version="1.1" id="Layer_1" xmlns="http://www.w3.org/2000/svg" xmlns:xlink="http://www.w3.org/1999/xlink" x="0px" y="0px"
	 viewBox="0 0 150 150" style="enable-background:new 0 0 150 150;" xml:space="preserve">
<style type="text/css">
	.st0{fill:#F4C734;}
</style>
<g>
	<path d="M131.2,31.9c-8.6-0.6-83.9-6.3-85.4-6.3c0,0,0,0,0,0c-15.7,0-28.5,12.8-28.6,28.5c0,7.7,3.1,15.2,8.6,20.7l8.7,49.6h26.7
		l0.1-1.3c0.8-16.6,1.9-41.1,2.2-46.1L127.4,60l5.4-28L131.2,31.9z M74.1,54.1c-0.1-7.8-3.4-15.2-8.9-20.4l10,0.7v8.2h6.5v-7.8
		l4.6,0.3v7.5h6.5v-7l2.8,0.2v6.7h6.5v-6.2l22.2,1.6l-2.5,16.6L70.4,68C72.8,63.8,74.1,58.9,74.1,54.1z M55,113.2l-0.2,4.6H39.9
		l-6.7-37.8c3.8,1.8,8,2.7,12.3,2.7c3.6,0.1,7.3-0.6,10.7-1.9L56,86.3h-9.2l-0.4,27H55z M55.8,92.8l-0.5,13.9h-2.2l0.2-13.9H55.8z"
		/>
	<path class="st0" d="M67.5,54.1c0,12.1-9.9,21.9-22,21.9c-12.1,0-21.9-9.8-21.9-21.9c0-12.1,9.8-21.9,21.9-21.9S67.5,42,67.5,54.1z
		"/>
	<g id="_x31_._luggage_2_">
	</g>
	<path d="M45.5,38.7L45.5,38.7c-8.5,0-15.3,6.9-15.3,15.3s6.9,15.3,15.3,15.3s15.3-6.9,15.3-15.3C60.9,45.6,54,38.8,45.5,38.7z
		 M54.4,54.1c0,4.9-4,8.8-8.8,8.8c-4.9,0-8.8-4-8.8-8.8c0-4.9,4-8.8,8.8-8.8S54.4,49.2,54.4,54.1z"/>
</g>
</svg>
