<?xml version="1.0" encoding="utf-8"?>
<!-- Generator: Adobe Illustrator 25.2.1, SVG Export Plug-In . SVG Version: 6.00 Build 0)  -->
<svg version="1.1" id="Layer_1" xmlns="http://www.w3.org/2000/svg" xmlns:xlink="http://www.w3.org/1999/xlink" x="0px" y="0px"
	 viewBox="0 0 150 150" style="enable-background:new 0 0 150 150;" xml:space="preserve">
<style type="text/css">
	.st0{fill:#F4C734;}
</style>
<g id="_x31_._luggage">
</g>
<g id="_x31_._luggage_1_">
</g>
<g>
	<path d="M108.6,54.3c7.2,0,13-5.8,13-13c0-7.2-5.8-13-13-13s-13,5.8-13,13C95.5,48.5,101.4,54.3,108.6,54.3z"/>
	<path class="st0" d="M108.6,33.3c4.4,0,8,3.6,8,8s-3.6,8-8,8s-8-3.6-8-8S104.1,33.3,108.6,33.3z"/>
	<path d="M131.7,85.1h-5.9V66.6c0-1.4-1.1-2.5-2.5-2.5H93.8c-1.4,0-2.5,1.1-2.5,2.5v18.6H68.9v-1.7c0-0.2,0-0.3,0-0.5
		c-0.8-12.9-11.5-23.1-24.6-23.1c-13.1,0-23.8,10.2-24.6,23.1c0,0.2,0,0.3,0,0.5v1.7h-5.9c-1.4,0-2.5,1.1-2.5,2.5v10.5
		c0,1.4,1.1,2.5,2.5,2.5h5.9v29.1c0,1.4,1.1,2.5,2.5,2.5h101.1c1.4,0,2.5-1.1,2.5-2.5v-29.1h5.9c1.4,0,2.5-1.1,2.5-2.5V87.6
		C134.2,86.3,133.1,85.1,131.7,85.1z M96.3,69.1h24.5v16.1H96.3V69.1z M120.8,127.3H24.7v-26.6h96.1V127.3z M129.2,95.7h-5.9H22.2
		h-5.9v-5.5h5.9h8.4h8.4h10.5H58h8.4h27.4h29.5h5.9V95.7z"/>
	<path d="M44.3,56.4c2.6,0,5.1-1,7-2.9c3.8-3.8,3.8-10.1,0-14c-1.9-1.9-4.3-2.9-7-2.9s-5.1,1-7,2.9c-3.8,3.8-3.8,10.1,0,14
		C39.2,55.4,41.7,56.4,44.3,56.4z M40.9,43.1L40.9,43.1c0.9-0.9,2.1-1.4,3.4-1.4c1.3,0,2.5,0.5,3.4,1.4c1.9,1.9,1.9,5,0,6.9
		c-0.9,0.9-2.1,1.4-3.4,1.4c-1.3,0-2.5-0.5-3.4-1.4C39,48.1,39,45,40.9,43.1z"/>
	<path d="M104.4,43.1h5c0.6,0,1-0.4,1-1v-5c0-0.6-0.4-1-1-1s-1,0.4-1,1v4h-4c-0.6,0-1,0.4-1,1S103.8,43.1,104.4,43.1z"/>
	<path class="st0" d="M24.7,84.5c0-10.8,8.8-19.6,19.6-19.6c10.8,0,19.6,8.8,19.6,19.6v0.7H58h-8.4c-0.9,0-1.7-0.8-1.7-1.7
		s0.8-1.7,1.7-1.7H58c1.4,0,2.5-1.1,2.5-2.5s-1.1-2.5-2.5-2.5h-8.4c-2.1,0-4,1-5.3,2.6c-1.2-1.6-3.1-2.6-5.3-2.6h-8.4
		c-1.4,0-2.5,1.1-2.5,2.5s1.1,2.5,2.5,2.5h8.4c0.9,0,1.7,0.8,1.7,1.7s-0.8,1.7-1.7,1.7h-8.4h-5.9V84.5z"/>
</g>
</svg>
