<?xml version="1.0" encoding="utf-8"?>
<!-- Generator: Adobe Illustrator 25.2.1, SVG Export Plug-In . SVG Version: 6.00 Build 0)  -->
<svg version="1.1" id="Layer_1" xmlns="http://www.w3.org/2000/svg" xmlns:xlink="http://www.w3.org/1999/xlink" x="0px" y="0px"
	 viewBox="0 0 150 150" style="enable-background:new 0 0 150 150;" xml:space="preserve">
<style type="text/css">
	.st0{fill:#F4C734;}
</style>
<g>
	<path class="st0" d="M128.5,86.1h-17.5c-2.5-36.3,17.5-58.6,17.5-58.6V86.1z"/>
</g>
<path class="st0" d="M53.5,51c0,12.7-8.8,23-19.7,23c-10.9,0-19.7-10.3-19.7-23C14.2,38.3,23,28,33.8,28C44.7,28,53.5,38.3,53.5,51z
	"/>
<path d="M56.5,51C56.5,36.7,46.3,25,33.8,25C21.4,25,11.2,36.7,11.2,51c0,13.1,8.6,24,19.7,25.7v51.3c0,1.6,1.3,3,3,3
	c1.6,0,3-1.3,3-3V76.7C47.9,75,56.5,64.1,56.5,51z M33.8,70.9c-9.2,0-16.7-9-16.7-20c0-11,7.5-20,16.7-20c9.2,0,16.7,9,16.7,20
	C50.6,62,43.1,70.9,33.8,70.9z"/>
<path d="M98.3,25c-1.6,0-3,1.3-3,3v30.4c0,4.1-3.3,7.4-7.4,7.4h-6.1c0,0,0,0,0,0s0,0,0,0h-6.1c-4.1,0-7.4-3.3-7.4-7.4V28
	c0-1.6-1.3-3-3-3s-3,1.3-3,3v30.4c0,7.3,6,13.3,13.3,13.3h3.1v56.2c0,1.6,1.3,3,3,3s3-1.3,3-3V71.7H88c7.3,0,13.3-6,13.3-13.3V28
	C101.3,26.4,99.9,25,98.3,25z"/>
<path d="M81.9,25c-1.6,0-3,1.3-3,3v24.1c0,1.6,1.3,3,3,3s3-1.3,3-3V28C84.8,26.4,83.5,25,81.9,25z"/>
<path d="M131.5,27.5c0-0.2,0-0.4-0.1-0.5c0-0.1,0-0.1,0-0.2c0-0.1-0.1-0.2-0.1-0.3c0-0.1,0-0.1-0.1-0.2c-0.1-0.1-0.1-0.2-0.2-0.4
	c0,0,0-0.1-0.1-0.1c-0.1-0.1-0.2-0.3-0.3-0.4c0,0-0.1-0.1-0.1-0.1c-0.1-0.1-0.2-0.2-0.3-0.2c-0.1,0-0.1-0.1-0.2-0.1
	c-0.1-0.1-0.2-0.1-0.3-0.2c-0.1,0-0.1-0.1-0.2-0.1c0,0,0,0,0,0c-0.1-0.1-0.3-0.1-0.4-0.1c0,0-0.1,0-0.1,0c-0.1,0-0.3,0-0.4,0
	c0,0-0.1,0-0.1,0c0,0-0.1,0-0.1,0c-0.1,0-0.3,0-0.4,0c-0.1,0-0.1,0-0.2,0c-0.2,0-0.3,0.1-0.5,0.1c0,0-0.1,0-0.1,0.1
	c-0.1,0.1-0.2,0.1-0.3,0.2c-0.1,0-0.1,0.1-0.2,0.1c-0.1,0.1-0.2,0.1-0.3,0.2c0,0-0.1,0.1-0.1,0.1c0,0,0,0-0.1,0.1
	c-0.8,0.9-20.8,23.7-18.2,60.7c0.1,1.6,1.4,2.8,3,2.8h14.5v39.4c0,1.6,1.3,3,3,3c1.6,0,3-1.3,3-3V86.1L131.5,27.5L131.5,27.5
	C131.5,27.5,131.5,27.5,131.5,27.5z M113.9,83.1c-0.8-21.3,6.4-37.4,11.7-46.1v46.1H113.9z"/>
</svg>
