<?xml version="1.0" encoding="utf-8"?>
<!-- Generator: Adobe Illustrator 25.2.1, SVG Export Plug-In . SVG Version: 6.00 Build 0)  -->
<svg version="1.1" id="Layer_1" xmlns="http://www.w3.org/2000/svg" xmlns:xlink="http://www.w3.org/1999/xlink" x="0px" y="0px"
	 viewBox="0 0 150 150" style="enable-background:new 0 0 150 150;" xml:space="preserve">
<style type="text/css">
	.st0{fill:#F4C734;}
</style>
<g id="_x31_._luggage">
</g>
<g>
	<g>
		<path d="M127.9,46.6h-7.6c-4.2,0-7.7,3.5-7.7,7.7v4.9H96.4c-4.5,0-8.2,3.3-8.8,7.6H77.5c-1.3-11.3-11-20.2-22.7-20.2
			c-11.7,0-21.3,8.8-22.7,20.2H17.1c-1.5,0-2.7,1.2-2.7,2.7v10.1c0,1.5,1.2,2.7,2.7,2.7h4.9v35h-4.9c-1.5,0-2.7,1.2-2.7,2.7
			c0,1.5,1.2,2.7,2.7,2.7h5.3c-0.2,0.7-0.4,1.5-0.4,2.4c0,4.2,3.5,7.7,7.7,7.7c4.2,0,7.7-3.5,7.7-7.7c0-0.8-0.1-1.6-0.4-2.4h33.2
			c-0.2,0.7-0.4,1.5-0.4,2.4c0,4.2,3.5,7.7,7.7,7.7c4.2,0,7.7-3.5,7.7-7.7c0-0.8-0.1-1.6-0.4-2.4h5.3c1.5,0,2.7-1.2,2.7-2.7
			c0-1.5-1.2-2.7-2.7-2.7h-4.9v-35h4.9c1.5,0,2.7-1.2,2.7-2.7v-3.1c1.1,0.5,2.3,0.8,3.6,0.8h16.2v9.9c0,2.3,1,4.3,2.5,5.7v30.8
			c0,4.9,4,9,9,9c4.9,0,9-4,9-9V92.7c1.5-1.4,2.5-3.4,2.5-5.7V54.3C135.6,50.1,132.2,46.6,127.9,46.6z M27.3,82.2H32v35h-4.7V82.2z
			 M69.8,82.2v35H37.4v-35H69.8z M29.7,127.2c-1.3,0-2.4-1.1-2.4-2.4s1.1-2.4,2.4-2.4c1.3,0,2.4,1.1,2.4,2.4S31,127.2,29.7,127.2z
			 M77.5,127.2c-1.3,0-2.4-1.1-2.4-2.4s1.1-2.4,2.4-2.4c1.3,0,2.4,1.1,2.4,2.4S78.8,127.2,77.5,127.2z M79.9,117.1h-4.7v-35h4.7
			V117.1z M87.5,76.8h-4.9H72.5H34.7H24.6h-4.9v-4.7h15H75h12.5V76.8z M96.4,71.8c-2,0-3.6-1.6-3.6-3.6c0-2,1.6-3.6,3.6-3.6h16.2
			v7.3H96.4z M127.8,123.6c0,2-1.6,3.6-3.6,3.6c-2,0-3.6-1.6-3.6-3.6V94.8h7.3V123.6z"/>
		<path d="M124.1,44.4c6.3,0,11.5-5.2,11.5-11.5s-5.2-11.5-11.5-11.5c-6.3,0-11.5,5.2-11.5,11.5S117.8,44.4,124.1,44.4z M124.1,26.7
			c3.4,0,6.2,2.8,6.2,6.2s-2.8,6.2-6.2,6.2s-6.2-2.8-6.2-6.2S120.7,26.7,124.1,26.7z"/>
		<path d="M51,39.2c0,1.5,1.2,2.7,2.7,2.7c1.5,0,2.7-1.2,2.7-2.7c0-0.2,0-0.2,0.5-0.7c0.7-0.8,2-2,2-4.4c0-2.3-1.2-3.6-2-4.4
			c-0.5-0.5-0.5-0.5-0.5-0.7c0-0.2,0-0.2,0.5-0.7c0.7-0.8,2-2,2-4.4c0-1.5-1.2-2.7-2.7-2.7c-1.5,0-2.7,1.2-2.7,2.7
			c0,0.2,0,0.2-0.5,0.7c-0.7,0.8-2,2-2,4.4c0,2.3,1.2,3.6,2,4.4c0.5,0.5,0.5,0.5,0.5,0.7c0,0.2,0,0.2-0.5,0.7
			C52.2,35.6,51,36.9,51,39.2z"/>
		<path d="M40.9,39.2c0,1.5,1.2,2.7,2.7,2.7s2.7-1.2,2.7-2.7c0-0.2,0-0.2,0.5-0.7c0.7-0.8,2-2,2-4.4c0-2.3-1.2-3.6-2-4.4
			c-0.5-0.5-0.5-0.5-0.5-0.7c0-0.2,0-0.2,0.5-0.7c0.7-0.8,2-2,2-4.4c0-1.5-1.2-2.7-2.7-2.7c-1.5,0-2.7,1.2-2.7,2.7
			c0,0.2,0,0.2-0.5,0.7c-0.7,0.8-2,2-2,4.4c0,2.3,1.2,3.6,2,4.4c0.5,0.5,0.5,0.5,0.5,0.7c0,0.2,0,0.2-0.5,0.7
			C42.1,35.6,40.9,36.9,40.9,39.2z"/>
		<path d="M61,39.2c0,1.5,1.2,2.7,2.7,2.7s2.7-1.2,2.7-2.7c0-0.2,0-0.2,0.5-0.7c0.7-0.8,2-2,2-4.4c0-2.3-1.2-3.6-2-4.4
			c-0.5-0.5-0.5-0.5-0.5-0.7c0-0.2,0-0.2,0.5-0.7c0.7-0.8,2-2,2-4.4c0-1.5-1.2-2.7-2.7-2.7c-1.5,0-2.7,1.2-2.7,2.7
			c0,0.2,0,0.2-0.5,0.7c-0.7,0.8-2,2-2,4.4c0,2.3,1.2,3.6,2,4.4c0.5,0.5,0.5,0.5,0.5,0.7c0,0.2,0,0.2-0.5,0.7
			C62.3,35.6,61,36.9,61,39.2z"/>
	</g>
	<path class="st0" d="M54.8,51.9c8.7,0,16,6.4,17.3,14.8H37.6C38.8,58.4,46.1,51.9,54.8,51.9z"/>
	<path class="st0" d="M118,54.3c0-1.3,1.1-2.4,2.4-2.4h7.6c1.3,0,2.4,1.1,2.4,2.4v32.8c0,1.3-1.1,2.4-2.4,2.4h-7.6
		c-1.3,0-2.4-1.1-2.4-2.4V74.5V61.9V54.3z"/>
</g>
</svg>
