<?xml version="1.0" encoding="utf-8"?>
<!-- Generator: Adobe Illustrator 25.2.1, SVG Export Plug-In . SVG Version: 6.00 Build 0)  -->
<svg version="1.1" id="Layer_1" xmlns="http://www.w3.org/2000/svg" xmlns:xlink="http://www.w3.org/1999/xlink" x="0px" y="0px"
	 viewBox="0 0 150 150" style="enable-background:new 0 0 150 150;" xml:space="preserve">
<style type="text/css">
	.st0{fill:#FFFFFF;}
	.st1{fill:#F4C734;}
	.st2{fill:#1D1D1B;}
</style>
<path d="M132.9,52.7L132.9,52.7c-7.8-7.8-16.9-13.9-27.1-18c-9.8-4-20.2-6-30.8-6s-21,2-30.8,6c-10.2,4.1-19.3,10.2-27.1,18
	c-3.6,3.6-3.6,9.4,0,12.9c1.7,1.7,4,2.7,6.5,2.7c2.4,0,4.7-1,6.5-2.7C42,53.6,58,47,75,47s33,6.6,45,18.6c1.7,1.7,4,2.7,6.5,2.7
	c2.4,0,4.7-1,6.5-2.7C136.5,62.1,136.5,56.3,132.9,52.7z"/>
<path class="st0" d="M127.8,60.6c-0.4,0.4-0.9,0.6-1.4,0.6h0c-0.5,0-1-0.2-1.4-0.6C111.7,47.2,93.9,39.8,75,39.8
	s-36.7,7.4-50.1,20.7c-0.4,0.4-0.9,0.6-1.4,0.6c-0.5,0-1-0.2-1.4-0.6c-0.8-0.8-0.8-2,0-2.8c7.1-7.1,15.4-12.6,24.7-16.4
	c9-3.6,18.4-5.5,28.1-5.5c9.7,0,19.2,1.8,28.1,5.5c9.3,3.8,17.6,9.3,24.7,16.4C128.6,58.6,128.6,59.8,127.8,60.6z"/>
<path d="M117.1,68.5L117.1,68.5c-5.7-5.7-12.3-10.1-19.7-13.1c-7.1-2.9-14.7-4.4-22.4-4.4c-7.7,0-15.3,1.5-22.4,4.4
	c-7.4,3-14,7.4-19.7,13.1c-1.7,1.7-2.7,4-2.7,6.5c0,2.4,1,4.7,2.7,6.5c1.7,1.7,4,2.7,6.5,2.7s4.7-1,6.5-2.7
	C53.6,73.7,64,69.4,75,69.4s21.4,4.3,29.2,12.1c1.7,1.7,4,2.7,6.5,2.7s4.7-1,6.5-2.7c1.7-1.7,2.7-4,2.7-6.5
	C119.8,72.5,118.9,70.2,117.1,68.5z"/>
<path class="st1" d="M112,76.4c-0.4,0.4-0.9,0.6-1.4,0.6c-0.5,0-1-0.2-1.4-0.6C100.1,67.2,88,62.2,75,62.2c-13,0-25.1,5-34.3,14.2
	c-0.4,0.4-0.9,0.6-1.4,0.6s-1-0.2-1.4-0.6c-0.4-0.4-0.6-0.9-0.6-1.4c0-0.5,0.2-1,0.6-1.4c9.9-9.9,23-15.3,37-15.3s27.2,5.4,37,15.3
	c0.4,0.4,0.6,0.9,0.6,1.4C112.6,75.5,112.4,76,112,76.4z"/>
<path d="M101.3,84.3L101.3,84.3c-7-7-16.4-10.9-26.3-10.9c-10,0-19.3,3.9-26.3,10.9c-1.7,1.7-2.7,4-2.7,6.5c0,2.4,1,4.7,2.7,6.5
	c1.7,1.7,4,2.7,6.5,2.7c2.4,0,4.7-1,6.5-2.7c3.6-3.6,8.3-5.5,13.4-5.5s9.8,2,13.4,5.5c1.7,1.7,4,2.7,6.5,2.7c2.4,0,4.7-1,6.5-2.7
	s2.7-4,2.7-6.5C104,88.3,103.1,86,101.3,84.3z"/>
<path class="st1" d="M96.3,92.1c-0.4,0.4-0.9,0.6-1.4,0.6c-0.5,0-1-0.2-1.4-0.6C88.6,87.2,82,84.5,75,84.5s-13.6,2.7-18.5,7.6
	c-0.4,0.4-0.9,0.6-1.4,0.6c-0.5,0-1-0.2-1.4-0.6c-0.4-0.4-0.6-0.9-0.6-1.4c0-0.5,0.2-1,0.6-1.4c5.7-5.7,13.2-8.8,21.3-8.8
	s15.6,3.1,21.3,8.8c0.4,0.4,0.6,0.9,0.6,1.4S96.6,91.8,96.3,92.1z"/>
<g>
	<path class="st2" d="M82.5,103.1c-2-2-4.7-3.1-7.5-3.1c-2.8,0-5.5,1.1-7.5,3.1c-2,2-3.1,4.7-3.1,7.5c0,2.8,1.1,5.5,3.1,7.5
		c2,2,4.7,3.1,7.5,3.1c2.8,0,5.5-1.1,7.5-3.1C86.6,114,86.6,107.3,82.5,103.1z"/>
	<path class="st0" d="M77.4,113.1c-0.6,0.6-1.5,1-2.4,1h0c-0.9,0-1.8-0.4-2.4-1c-1.3-1.3-1.3-3.5,0-4.8c0.6-0.6,1.5-1,2.4-1
		s1.8,0.4,2.4,1C78.8,109.6,78.8,111.7,77.4,113.1z"/>
</g>
</svg>
